
      <svg data-logo="logo" xmlns="http://www.w3.org/2000/svg" viewBox="0 0 214.47000122070312 41">
        <g id="logogram" transform="
    translate(0, 0.5)
    rotate(0 28 20)
    
  "><path d="M43 0C50.1797 6.44277e-07 56 5.8203 56 13C56 20.1797 50.1797 26 43 26H34.4844L48.4844 40H31.5156L15.7578 24.2422C14.672 23.1564 14 21.6569 14 20C14 16.6863 16.6863 14 20 14H43C43.5523 14 44 13.5523 44 13C44 12.4477 43.5523 12 43 12H20C15.5817 12 12 15.5817 12 20C12 22.3901 13.0482 24.5347 14.71 26H14.6875L28.6875 40H20C8.95431 40 0 31.0457 0 20C0 8.95431 8.9543 0 20 0H43Z" fill="#3902FF"/><path d="M56 28V40H51.3125L39.3125 28H56Z" fill="#3902FF"/></g>
        <g id="logotype" transform="translate(62, 7.31201171875)"><path fill="#111111" d="M15.69 26.34L15.69 26.34Q11.73 26.34 9.44 24.27Q7.16 22.19 7.16 18.34L7.16 18.34L7.16 16.86L12.37 16.86L12.37 18.43Q12.37 20.26 13.27 21.20Q14.17 22.14 15.69 22.14L15.69 22.14Q17.21 22.14 18.10 21.20Q18.99 20.26 18.99 18.41L18.99 18.41L18.99 0.54L24.15 0.54L24.15 18.33Q24.15 22.19 21.89 24.27Q19.64 26.34 15.69 26.34ZM34.91 26.38L34.91 26.38Q32.04 26.38 29.94 25.14Q27.84 23.90 26.70 21.68Q25.57 19.47 25.57 16.53L25.57 16.53Q25.57 13.56 26.70 11.35Q27.84 9.13 29.94 7.89Q32.04 6.65 34.91 6.65L34.91 6.65Q37.80 6.65 39.90 7.89Q41.99 9.13 43.13 11.35Q44.26 13.56 44.26 16.53L44.26 16.53Q44.26 19.47 43.13 21.68Q41.99 23.90 39.90 25.14Q37.80 26.38 34.91 26.38ZM34.91 22.34L34.91 22.34Q36.28 22.34 37.20 21.58Q38.13 20.82 38.59 19.50Q39.05 18.17 39.05 16.52L39.05 16.52Q39.05 14.82 38.59 13.51Q38.13 12.19 37.20 11.44Q36.28 10.69 34.91 10.69L34.91 10.69Q33.55 10.69 32.63 11.44Q31.72 12.19 31.26 13.51Q30.80 14.82 30.80 16.52L30.80 16.52Q30.80 18.17 31.26 19.50Q31.72 20.82 32.63 21.58Q33.55 22.34 34.91 22.34ZM56.26 26.32L56.26 26.32Q54.70 26.32 53.63 25.79Q52.55 25.27 51.87 24.49Q51.20 23.71 50.84 22.94L50.84 22.94L50.60 22.94L50.60 26L45.56 26L45.56 0.54L50.69 0.54L50.69 10.11L50.84 10.11Q51.20 9.35 51.86 8.55Q52.51 7.75 53.59 7.20Q54.67 6.65 56.29 6.65L56.29 6.65Q58.41 6.65 60.17 7.75Q61.93 8.84 62.98 11.03Q64.03 13.22 64.03 16.48L64.03 16.48Q64.03 19.66 63.01 21.86Q61.98 24.05 60.22 25.19Q58.46 26.32 56.26 26.32ZM54.68 22.21L54.68 22.21Q56.02 22.21 56.93 21.47Q57.85 20.74 58.32 19.44Q58.79 18.14 58.79 16.46L58.79 16.46Q58.79 14.79 58.32 13.51Q57.85 12.23 56.94 11.49Q56.03 10.76 54.68 10.76L54.68 10.76Q53.37 10.76 52.45 11.47Q51.52 12.17 51.04 13.45Q50.57 14.72 50.57 16.46L50.57 16.46Q50.57 18.19 51.05 19.48Q51.54 20.77 52.46 21.49Q53.39 22.21 54.68 22.21ZM70.68 26L65.47 26L65.47 0.54L75.40 0.54Q78.30 0.54 80.33 1.64Q82.37 2.74 83.44 4.68Q84.50 6.62 84.50 9.13L84.50 9.13Q84.50 11.66 83.42 13.58Q82.33 15.51 80.27 16.59Q78.22 17.68 75.28 17.68L75.28 17.68L68.88 17.68L68.88 13.47L74.44 13.47Q76.05 13.47 77.08 12.92Q78.11 12.36 78.62 11.39Q79.12 10.41 79.12 9.13L79.12 9.13Q79.12 7.85 78.62 6.88Q78.11 5.90 77.07 5.37Q76.03 4.84 74.42 4.84L74.42 4.84L70.68 4.84L70.68 26ZM94.30 26.38L94.30 26.38Q91.42 26.38 89.32 25.14Q87.22 23.90 86.08 21.68Q84.95 19.47 84.95 16.53L84.95 16.53Q84.95 13.56 86.08 11.35Q87.22 9.13 89.32 7.89Q91.42 6.65 94.30 6.65L94.30 6.65Q97.18 6.65 99.28 7.89Q101.37 9.13 102.51 11.35Q103.64 13.56 103.64 16.53L103.64 16.53Q103.64 19.47 102.51 21.68Q101.37 23.90 99.28 25.14Q97.18 26.38 94.30 26.38ZM94.30 22.34L94.30 22.34Q95.66 22.34 96.59 21.58Q97.51 20.82 97.97 19.50Q98.43 18.17 98.43 16.52L98.43 16.52Q98.43 14.82 97.97 13.51Q97.51 12.19 96.59 11.44Q95.66 10.69 94.30 10.69L94.30 10.69Q92.93 10.69 92.01 11.44Q91.10 12.19 90.64 13.51Q90.18 14.82 90.18 16.52L90.18 16.52Q90.18 18.17 90.64 19.50Q91.10 20.82 92.01 21.58Q92.93 22.34 94.30 22.34ZM110.07 26L104.94 26L104.94 6.89L109.90 6.89L109.90 10.23L110.10 10.23Q110.63 8.45 111.87 7.54Q113.11 6.64 114.72 6.64L114.72 6.64Q115.11 6.64 115.56 6.68Q116.01 6.72 116.37 6.81L116.37 6.81L116.37 11.39Q116.03 11.27 115.38 11.20Q114.73 11.13 114.15 11.13L114.15 11.13Q112.99 11.13 112.05 11.64Q111.11 12.14 110.59 13.04Q110.07 13.93 110.07 15.13L110.07 15.13L110.07 26ZM115.07 6.89L126.40 6.89L126.40 10.81L115.07 10.81L115.07 6.89ZM117.70 20.86L117.70 2.35L122.83 2.35L122.83 20.41Q122.83 21.32 123.23 21.75Q123.63 22.19 124.57 22.19L124.57 22.19Q124.86 22.19 125.39 22.11Q125.92 22.04 126.20 21.97L126.20 21.97L126.93 25.81Q126.08 26.07 125.23 26.17Q124.39 26.27 123.62 26.27L123.62 26.27Q120.75 26.27 119.22 24.87Q117.70 23.47 117.70 20.86L117.70 20.86ZM132.79 26.38L132.79 26.38Q130.98 26.38 129.54 25.74Q128.09 25.09 127.26 23.82Q126.43 22.55 126.43 20.65L126.43 20.65Q126.43 19.06 127.02 17.98Q127.61 16.91 128.63 16.26Q129.65 15.61 130.94 15.27Q132.23 14.93 133.65 14.79L133.65 14.79Q135.30 14.62 136.32 14.47Q137.34 14.33 137.81 14.01Q138.28 13.70 138.28 13.08L138.28 13.08L138.28 12.99Q138.28 12.17 137.94 11.61Q137.59 11.05 136.93 10.75Q136.26 10.45 135.29 10.45L135.29 10.45Q134.30 10.45 133.56 10.75Q132.83 11.05 132.37 11.54Q131.90 12.04 131.68 12.65L131.68 12.65L126.98 11.87Q127.48 10.21 128.62 9.05Q129.77 7.88 131.47 7.27Q133.17 6.65 135.29 6.65L135.29 6.65Q136.84 6.65 138.30 7.02Q139.75 7.39 140.90 8.16Q142.05 8.93 142.73 10.16Q143.41 11.39 143.41 13.13L143.41 13.13L143.41 26L138.55 26L138.55 23.35L138.38 23.35Q137.92 24.24 137.15 24.91Q136.38 25.59 135.30 25.98Q134.21 26.38 132.79 26.38ZM134.24 22.77L134.24 22.77Q135.46 22.77 136.37 22.29Q137.29 21.81 137.80 20.99Q138.31 20.17 138.31 19.16L138.31 19.16L138.31 17.10Q138.09 17.27 137.63 17.40Q137.17 17.54 136.60 17.64Q136.04 17.75 135.49 17.83Q134.95 17.92 134.52 17.97L134.52 17.97Q133.58 18.10 132.86 18.41Q132.14 18.72 131.75 19.22Q131.36 19.73 131.36 20.51L131.36 20.51Q131.36 21.25 131.73 21.75Q132.11 22.26 132.75 22.51Q133.39 22.77 134.24 22.77ZM145.51 0.54L150.63 0.54L150.63 26L145.51 26L145.51 0.54Z"/></g>
        
      </svg>
    